# xmcd
#
# Track frame offsets: 
#        150
#        13832
#        43925
#        63923
#        77673
#        100080
#        112701
#        137437
#        156383
#        174944
#        191517
#        222732
#        233547
#
# Disc length: 3360 seconds
#
# Revision: 1
# Processed by: cddbd v1.5.2PL0 Copyright (c) Steve Scherf et al.
# Submitted via: ExactAudioCopy v1.0b1
#
DISCID=a40d1e0d
DTITLE=Stanisław Soyka Kwintet - Koncert w klubie Pod Pretekstem [CD2)
DYEAR=2004
DGENRE=Jazz
TTITLE0=Sonet 66
TTITLE1=Po co ja to wszystko piszę
TTITLE2=Cisza ratunkowa
TTITLE3=Tango memento vitae
TTITLE4=Modlitwa
TTITLE5=Natchnienie
TTITLE6=Świat
TTITLE7=Jakby nie było jutra
TTITLE8=Nie ma drugiej takiej
TTITLE9=Tolerancja
TTITLE10=Niech drgnie Twoje oko
TTITLE11=Sonet 153
TTITLE12=Przedstawienie muzyków
EXTD=YEAR: 2004
EXTT0=
EXTT1=
EXTT2=
EXTT3=
EXTT4=
EXTT5=
EXTT6=
EXTT7=
EXTT8=
EXTT9=
EXTT10=
EXTT11=
EXTT12=
PLAYORDER=
